<svg width="440" height="956" viewBox="0 0 440 956" fill="none" xmlns="http://www.w3.org/2000/svg">
<rect width="440" height="956" fill="white"/>
<rect x="15" y="12" width="68" height="75" fill="#D9D9D9"/>
<path d="M362 50C362 31.2223 377.222 16 396 16C414.778 16 430 31.2223 430 50C430 68.7777 414.778 84 396 84C377.222 84 362 68.7777 362 50Z" fill="#D9D9D9"/>
<g clip-path="url(#clip0_16_32)">
<rect x="376" y="30" width="40" height="40" rx="20" fill="#D9D9D9"/>
<path d="M403.6 59L397.3 52.7C396.8 53.1 396.225 53.4167 395.575 53.65C394.925 53.8833 394.233 54 393.5 54C391.683 54 390.146 53.3708 388.888 52.1125C387.629 50.8542 387 49.3167 387 47.5C387 45.6833 387.629 44.1458 388.888 42.8875C390.146 41.6292 391.683 41 393.5 41C395.317 41 396.854 41.6292 398.113 42.8875C399.371 44.1458 400 45.6833 400 47.5C400 48.2333 399.883 48.925 399.65 49.575C399.417 50.225 399.1 50.8 398.7 51.3L405 57.6L403.6 59ZM393.5 52C394.75 52 395.812 51.5625 396.688 50.6875C397.562 49.8125 398 48.75 398 47.5C398 46.25 397.562 45.1875 396.688 44.3125C395.812 43.4375 394.75 43 393.5 43C392.25 43 391.188 43.4375 390.312 44.3125C389.438 45.1875 389 46.25 389 47.5C389 48.75 389.438 49.8125 390.312 50.6875C391.188 51.5625 392.25 52 393.5 52Z" fill="#49454F"/>
</g>
<circle cx="322" cy="44" r="26" fill="#D9D9D9"/>
<path d="M65.0696 32.9634C61.2459 32.9634 53.5654 31.8756 45.0608 32.6832C41.5058 33.0208 36.0618 32.9634 33.5319 33.7792C27.9857 35.5678 33.7544 47.2036 34.5702 54.3402C35.5233 62.677 48.555 64.2457 56.5239 65.6549C58.4496 65.9954 60.0921 64.839 60.9327 63.471C64.9447 56.9418 65.0696 48.9342 64.2538 42.6217C61.8062 39.0287 59.0373 36.2762 56.5733 33.532C55.1971 32.4195 53.5654 31.8756 50.2361 32.9634" stroke="black" stroke-width="2" stroke-linecap="round"/>
<path d="M50.2361 29.6671C50.2361 28.5793 51.8678 26.9311 55.1559 26.0988C56.7806 25.6875 58.444 27.986 59.0126 29.6424C60.0802 32.7524 56.8452 35.1555 56.0047 35.9796C49.47 42.3861 69.9976 40.1 72.1979 41.7399C74.3851 43.3701 70.0306 46.6927 68.3742 48.3326C67.5951 49.104 69.9812 51.0603 70.5498 52.9887C71.1184 54.9171 70.5745 57.0927 69.4785 58.4854C68.3824 59.8781 66.7507 60.422 66.1821 61.518C64.9259 63.9394 66.1739 67.5585 64.534 69.4869C62.694 71.6504 59.5812 65.9433 57.9413 64.015C56.1013 61.8514 51.9007 66.4707 49.1565 66.479C47.9218 66.4827 47.5001 64.3116 46.4041 63.1991C44.1644 60.9258 36.5563 60.9823 28.8593 60.1665C26.4718 59.9134 27.6891 57.719 29.0653 56.3345C31.8102 53.5731 36.4739 52.7415 39.5065 52.4695C45.5308 51.9293 27.1947 47.2696 22.2254 44.2369C21.5217 43.8074 23.8324 42.325 25.4888 42.0366C28.7379 41.4709 32.6336 43.3964 34.8422 43.1327C38.4892 42.6972 29.3702 36.2763 27.994 32.9882C27.3449 31.4372 28.2495 29.7001 29.3455 29.6753C30.4416 29.6506 32.0732 31.2823 33.1858 31.307C34.8422 29.7001 37.0342 27.475 40.0504 27.4668C41.4349 28.0024 42.5226 29.6341 43.6434 31.3153" stroke="black" stroke-width="2" stroke-linecap="round"/>
<path d="M52.9638 48.0524C50.2196 45.5884 48.5879 43.9402 48.5879 42.8524C46.3794 44.5336 45.8355 46.1652 46.1239 47.8217C46.4123 49.4781 47.5001 51.1097 49.1648 51.9256C50.8294 52.7414 53.005 52.7414 53.8126 51.9009C54.6202 51.0603 54.2806 49.2347 52.9638 48.0524Z" stroke="black" stroke-width="2" stroke-linecap="round"/>
<path d="M324.283 27.3804C322.188 27.0329 317.986 25.6323 311.494 25.7955C309.26 25.8517 309.54 31.2137 310.061 35.5998C310.622 40.3191 316.554 41.0601 318.649 42.6398C321.466 44.7627 325.326 42.8293 327.079 41.7815C328.843 37.9219 329.201 34.7626 328.501 32.4879C328.148 31.2558 327.801 29.8657 325.337 26.3273" stroke="black" stroke-width="2" stroke-linecap="round"/>
<path d="M315.859 42.1238C315.164 42.1238 314.111 43.1663 312.884 45.2672C310.71 48.9895 313.394 53.6867 315.674 57.9044C316.238 58.9463 316.554 60.0053 317.428 60.3686C321.987 62.2636 326.369 56.172 330.239 54.4186C331.148 54.0068 331.297 52.6758 331.302 51.6174C330.254 47.3998 327.464 43.1979 323.246 40.0281C322.188 39.3225 321.145 38.6275 319.018 37.9114" stroke="black" stroke-width="2" stroke-linecap="round"/>
<rect x="114" y="29" width="41" height="41" fill="#D9D9D9"/>
<path d="M124.715 55.2732C124.715 54.3576 124.715 50.6814 126.546 45.8261C128.57 40.459 137.186 44.6331 139.725 46.0134C141.03 46.7233 141.805 48.3092 142.048 49.9323C142.56 53.3551 140.904 56.6465 139.523 58.9563C136.656 63.7548 130.278 62.6671 127.968 62.6741C127.031 62.2232 126.574 60.8498 126.338 59.2268C126.102 57.6037 126.102 55.7726 126.102 53.8859" stroke="black" stroke-width="2" stroke-linecap="round"/>
<path d="M124.715 45.5626C126.546 43.7175 131.179 40.0414 135.563 37.0103C136.728 37.2253 137.644 38.5986 138.344 39.9928C139.045 41.387 139.503 42.7603 139.974 45.5626" stroke="black" stroke-width="2" stroke-linecap="round"/>
<path d="M130.264 58.0476C131.179 58.0476 133.024 57.132 134.876 56.4315C136.362 55.8694 133.968 60.8082 132.816 62.2024C132.374 62.7374 131.207 60.8498 130.735 59.2268C130.264 57.6037 130.264 55.7725 130.95 54.3714C131.637 52.9703 133.01 52.0548 133.489 52.2698C133.968 52.4848 133.51 53.8582 131.651 56.6604" stroke="black" stroke-width="2" stroke-linecap="round"/>
<rect x="60" y="825" width="344" height="32" fill="#D9D9D9"/>
<path d="M114.286 846V836.213H110.729V834.693H119.599V836.213H116.042V846H114.286ZM123.182 846.165C122.351 846.165 121.638 845.987 121.042 845.632C120.447 845.271 119.987 844.762 119.663 844.104C119.345 843.445 119.185 842.667 119.185 841.769V841.761C119.185 840.873 119.345 840.097 119.663 839.433C119.987 838.77 120.442 838.253 121.027 837.882C121.617 837.511 122.307 837.326 123.095 837.326C123.889 837.326 124.571 837.503 125.141 837.858C125.715 838.214 126.157 838.713 126.465 839.355C126.773 839.992 126.927 840.739 126.927 841.596V842.192H120.047V840.977H126.081L125.266 842.106V841.424C125.266 840.818 125.172 840.316 124.984 839.919C124.801 839.517 124.548 839.217 124.224 839.018C123.9 838.82 123.526 838.72 123.103 838.72C122.68 838.72 122.301 838.825 121.967 839.034C121.638 839.238 121.377 839.541 121.183 839.943C120.995 840.345 120.901 840.839 120.901 841.424V842.106C120.901 842.665 120.995 843.142 121.183 843.54C121.371 843.937 121.638 844.24 121.983 844.448C122.333 844.657 122.745 844.762 123.221 844.762C123.586 844.762 123.9 844.712 124.161 844.613C124.428 844.509 124.644 844.381 124.811 844.229C124.984 844.078 125.101 843.929 125.164 843.782L125.195 843.72H126.841L126.825 843.79C126.752 844.072 126.624 844.354 126.441 844.637C126.259 844.913 126.016 845.167 125.713 845.397C125.415 845.626 125.054 845.812 124.631 845.953C124.213 846.094 123.73 846.165 123.182 846.165ZM127.556 846L130.384 841.761L127.532 837.49H129.507L131.34 840.531H131.474L133.284 837.49H135.164L132.359 841.69L135.196 846H133.26L131.403 842.936H131.27L129.413 846H127.556ZM139.766 846.055C138.836 846.055 138.162 845.877 137.744 845.522C137.331 845.162 137.125 844.574 137.125 843.759V838.83H135.793V837.49H137.125V835.343H138.864V837.49H140.69V838.83H138.864V843.344C138.864 843.803 138.956 844.135 139.139 844.339C139.322 844.537 139.624 844.637 140.048 844.637C140.173 844.637 140.28 844.634 140.369 844.629C140.463 844.623 140.57 844.616 140.69 844.605V845.969C140.554 845.99 140.408 846.008 140.251 846.024C140.095 846.044 139.933 846.055 139.766 846.055ZM146.437 846V834.693H148.192V846H146.437ZM150.427 846V837.49H152.127V838.775H152.261C152.47 838.321 152.778 837.966 153.185 837.71C153.593 837.454 154.107 837.326 154.729 837.326C155.685 837.326 156.416 837.6 156.923 838.148C157.43 838.697 157.683 839.478 157.683 840.491V846H155.975V840.891C155.975 840.181 155.826 839.653 155.528 839.308C155.236 838.958 154.776 838.783 154.149 838.783C153.736 838.783 153.379 838.875 153.076 839.057C152.773 839.235 152.538 839.491 152.37 839.825C152.208 840.154 152.127 840.549 152.127 841.009V846H150.427ZM159.644 848.837V837.49H161.344V838.83H161.477C161.639 838.517 161.848 838.25 162.104 838.031C162.365 837.811 162.663 837.642 162.997 837.522C163.332 837.401 163.697 837.341 164.094 837.341C164.81 837.341 165.432 837.524 165.959 837.89C166.487 838.25 166.895 838.76 167.182 839.418C167.474 840.071 167.621 840.844 167.621 841.737V841.753C167.621 842.651 167.477 843.43 167.19 844.088C166.902 844.741 166.495 845.248 165.967 845.608C165.44 845.963 164.815 846.141 164.094 846.141C163.703 846.141 163.337 846.081 162.997 845.961C162.658 845.835 162.358 845.663 162.096 845.444C161.835 845.224 161.629 844.96 161.477 844.652H161.344V848.837H159.644ZM163.609 844.684C164.084 844.684 164.492 844.566 164.831 844.331C165.171 844.096 165.429 843.759 165.607 843.32C165.79 842.881 165.881 842.359 165.881 841.753V841.737C165.881 841.126 165.79 840.601 165.607 840.162C165.429 839.723 165.171 839.386 164.831 839.151C164.492 838.916 164.084 838.799 163.609 838.799C163.138 838.799 162.731 838.919 162.386 839.159C162.041 839.394 161.778 839.731 161.595 840.17C161.412 840.604 161.321 841.126 161.321 841.737V841.753C161.321 842.354 161.412 842.873 161.595 843.312C161.778 843.751 162.041 844.091 162.386 844.331C162.731 844.566 163.138 844.684 163.609 844.684ZM172.089 846.165C171.451 846.165 170.913 846.042 170.474 845.796C170.041 845.546 169.714 845.185 169.495 844.715C169.281 844.24 169.174 843.668 169.174 842.999V837.49H170.874V842.599C170.874 843.299 171.013 843.824 171.289 844.174C171.566 844.524 172.018 844.699 172.645 844.699C172.979 844.699 173.277 844.65 173.538 844.55C173.8 844.446 174.019 844.297 174.197 844.104C174.374 843.91 174.505 843.678 174.588 843.406C174.677 843.135 174.722 842.826 174.722 842.482V837.49H176.43V846H174.722V844.715H174.596C174.46 845.018 174.275 845.279 174.04 845.498C173.805 845.713 173.523 845.877 173.194 845.992C172.87 846.107 172.501 846.165 172.089 846.165ZM181.681 846.055C180.752 846.055 180.078 845.877 179.66 845.522C179.247 845.162 179.041 844.574 179.041 843.759V838.83H177.709V837.49H179.041V835.343H180.78V837.49H182.606V838.83H180.78V843.344C180.78 843.803 180.872 844.135 181.055 844.339C181.237 844.537 181.54 844.637 181.964 844.637C182.089 844.637 182.196 844.634 182.285 844.629C182.379 844.623 182.486 844.616 182.606 844.605V845.969C182.47 845.99 182.324 846.008 182.167 846.024C182.011 846.044 181.849 846.055 181.681 846.055ZM188.353 846V834.693H190.108V839.473H195.907V834.693H197.67V846H195.907V840.993H190.108V846H188.353ZM203.486 846.165C202.655 846.165 201.942 845.987 201.346 845.632C200.751 845.271 200.291 844.762 199.967 844.104C199.649 843.445 199.489 842.667 199.489 841.769V841.761C199.489 840.873 199.649 840.097 199.967 839.433C200.291 838.77 200.746 838.253 201.331 837.882C201.921 837.511 202.611 837.326 203.399 837.326C204.193 837.326 204.875 837.503 205.445 837.858C206.019 838.214 206.461 838.713 206.769 839.355C207.077 839.992 207.231 840.739 207.231 841.596V842.192H200.351V840.977H206.385L205.57 842.106V841.424C205.57 840.818 205.476 840.316 205.288 839.919C205.105 839.517 204.852 839.217 204.528 839.018C204.204 838.82 203.83 838.72 203.407 838.72C202.984 838.72 202.605 838.825 202.271 839.034C201.942 839.238 201.681 839.541 201.487 839.943C201.299 840.345 201.205 840.839 201.205 841.424V842.106C201.205 842.665 201.299 843.142 201.487 843.54C201.676 843.937 201.942 844.24 202.287 844.448C202.637 844.657 203.049 844.762 203.525 844.762C203.891 844.762 204.204 844.712 204.465 844.613C204.732 844.509 204.948 844.381 205.116 844.229C205.288 844.078 205.405 843.929 205.468 843.782L205.499 843.72H207.145L207.129 843.79C207.056 844.072 206.928 844.354 206.745 844.637C206.563 844.913 206.32 845.167 206.017 845.397C205.719 845.626 205.358 845.812 204.935 845.953C204.517 846.094 204.034 846.165 203.486 846.165ZM208.847 846V837.49H210.547V838.775H210.681C210.832 838.321 211.099 837.968 211.48 837.717C211.866 837.467 212.342 837.341 212.906 837.341C213.047 837.341 213.185 837.349 213.321 837.365C213.457 837.38 213.567 837.399 213.65 837.42V838.987C213.499 838.955 213.347 838.932 213.196 838.916C213.05 838.901 212.896 838.893 212.734 838.893C212.3 838.893 211.919 838.976 211.59 839.144C211.266 839.311 211.01 839.546 210.822 839.849C210.639 840.147 210.547 840.502 210.547 840.914V846H208.847ZM218.236 846.165C217.405 846.165 216.692 845.987 216.097 845.632C215.501 845.271 215.042 844.762 214.718 844.104C214.399 843.445 214.24 842.667 214.24 841.769V841.761C214.24 840.873 214.399 840.097 214.718 839.433C215.042 838.77 215.496 838.253 216.081 837.882C216.671 837.511 217.361 837.326 218.15 837.326C218.944 837.326 219.626 837.503 220.195 837.858C220.77 838.214 221.211 838.713 221.519 839.355C221.827 839.992 221.982 840.739 221.982 841.596V842.192H215.102V840.977H221.135L220.32 842.106V841.424C220.32 840.818 220.226 840.316 220.038 839.919C219.855 839.517 219.602 839.217 219.278 839.018C218.954 838.82 218.581 838.72 218.158 838.72C217.734 838.72 217.356 838.825 217.021 839.034C216.692 839.238 216.431 839.541 216.238 839.943C216.05 840.345 215.956 840.839 215.956 841.424V842.106C215.956 842.665 216.05 843.142 216.238 843.54C216.426 843.937 216.692 844.24 217.037 844.448C217.387 844.657 217.8 844.762 218.275 844.762C218.641 844.762 218.954 844.712 219.215 844.613C219.482 844.509 219.699 844.381 219.866 844.229C220.038 844.078 220.156 843.929 220.218 843.782L220.25 843.72H221.895L221.88 843.79C221.807 844.072 221.679 844.354 221.496 844.637C221.313 844.913 221.07 845.167 220.767 845.397C220.469 845.626 220.109 845.812 219.686 845.953C219.268 846.094 218.785 846.165 218.236 846.165ZM224.906 846.125C224.582 846.125 224.308 846.013 224.083 845.788C223.864 845.564 223.754 845.295 223.754 844.981C223.754 844.657 223.864 844.386 224.083 844.166C224.308 843.947 224.582 843.837 224.906 843.837C225.235 843.837 225.509 843.947 225.729 844.166C225.948 844.386 226.058 844.657 226.058 844.981C226.058 845.295 225.948 845.564 225.729 845.788C225.509 846.013 225.235 846.125 224.906 846.125ZM224.906 840.201C224.582 840.201 224.308 840.089 224.083 839.864C223.864 839.64 223.754 839.371 223.754 839.057C223.754 838.733 223.864 838.462 224.083 838.242C224.308 838.023 224.582 837.913 224.906 837.913C225.235 837.913 225.509 838.023 225.729 838.242C225.948 838.462 226.058 838.733 226.058 839.057C226.058 839.371 225.948 839.64 225.729 839.864C225.509 840.089 225.235 840.201 224.906 840.201Z" fill="black"/>
<rect opacity="0.5" x="39" y="137" width="369" height="615" fill="#D9D9D9"/>
<circle cx="28.5" cy="841.5" r="21.5" fill="#D9D9D9"/>
<path d="M20.0215 843.439V839.977H38.3203V843.439H20.0215ZM27.4395 850.523V832.893H30.8848V850.523H27.4395Z" fill="black"/>
<path d="M171.418 124V112.693H173.448L177.045 121.704H177.178L180.774 112.693H182.804V124H181.198V115.71H180.328L182.161 113.006L177.758 124H176.457L172.061 113.006L173.887 115.71H173.025V124H171.418ZM188.635 124.165C187.805 124.165 187.087 123.987 186.481 123.632C185.88 123.276 185.417 122.77 185.094 122.112C184.77 121.448 184.608 120.662 184.608 119.753V119.737C184.608 118.823 184.77 118.037 185.094 117.379C185.423 116.72 185.888 116.214 186.488 115.858C187.094 115.503 187.81 115.326 188.635 115.326C189.466 115.326 190.182 115.503 190.782 115.858C191.383 116.208 191.846 116.715 192.169 117.379C192.499 118.037 192.663 118.823 192.663 119.737V119.753C192.663 120.662 192.499 121.448 192.169 122.112C191.846 122.77 191.383 123.276 190.782 123.632C190.187 123.987 189.471 124.165 188.635 124.165ZM188.635 122.738C189.121 122.738 189.534 122.621 189.873 122.386C190.213 122.145 190.472 121.803 190.649 121.359C190.827 120.915 190.916 120.38 190.916 119.753V119.737C190.916 119.105 190.827 118.567 190.649 118.123C190.472 117.679 190.213 117.339 189.873 117.104C189.534 116.864 189.121 116.744 188.635 116.744C188.15 116.744 187.737 116.864 187.397 117.104C187.058 117.339 186.797 117.679 186.614 118.123C186.436 118.567 186.347 119.105 186.347 119.737V119.753C186.347 120.38 186.436 120.915 186.614 121.359C186.797 121.803 187.058 122.145 187.397 122.386C187.737 122.621 188.15 122.738 188.635 122.738ZM197.382 124.141C196.671 124.141 196.05 123.963 195.517 123.608C194.989 123.248 194.579 122.738 194.287 122.08C193.999 121.422 193.856 120.646 193.856 119.753V119.737C193.856 118.839 193.999 118.06 194.287 117.402C194.574 116.744 194.981 116.237 195.509 115.882C196.037 115.522 196.661 115.341 197.382 115.341C197.774 115.341 198.139 115.404 198.479 115.529C198.818 115.65 199.119 115.822 199.38 116.047C199.641 116.266 199.848 116.53 199.999 116.838H200.124V112.152H201.833V124H200.124V122.66H199.999C199.832 122.968 199.62 123.235 199.364 123.459C199.108 123.679 198.813 123.849 198.479 123.969C198.145 124.084 197.779 124.141 197.382 124.141ZM197.868 122.684C198.338 122.684 198.745 122.566 199.09 122.331C199.435 122.096 199.699 121.759 199.882 121.32C200.064 120.876 200.156 120.354 200.156 119.753V119.737C200.156 119.131 200.062 118.609 199.874 118.17C199.691 117.731 199.427 117.394 199.082 117.159C198.743 116.919 198.338 116.799 197.868 116.799C197.398 116.799 196.99 116.919 196.645 117.159C196.306 117.394 196.045 117.731 195.862 118.17C195.684 118.604 195.595 119.126 195.595 119.737V119.753C195.595 120.359 195.684 120.881 195.862 121.32C196.045 121.759 196.306 122.096 196.645 122.331C196.99 122.566 197.398 122.684 197.868 122.684ZM207.523 124.165C206.693 124.165 205.979 123.987 205.384 123.632C204.788 123.271 204.329 122.762 204.005 122.104C203.686 121.445 203.527 120.667 203.527 119.769V119.761C203.527 118.873 203.686 118.097 204.005 117.433C204.329 116.77 204.783 116.253 205.368 115.882C205.959 115.511 206.648 115.326 207.437 115.326C208.231 115.326 208.913 115.503 209.482 115.858C210.057 116.214 210.498 116.713 210.806 117.355C211.115 117.992 211.269 118.739 211.269 119.596V120.192H204.389V118.977H210.422L209.607 120.106V119.424C209.607 118.818 209.513 118.316 209.325 117.919C209.143 117.517 208.889 117.217 208.565 117.018C208.241 116.82 207.868 116.72 207.445 116.72C207.022 116.72 206.643 116.825 206.309 117.034C205.979 117.238 205.718 117.541 205.525 117.943C205.337 118.345 205.243 118.839 205.243 119.424V120.106C205.243 120.665 205.337 121.142 205.525 121.54C205.713 121.937 205.979 122.24 206.324 122.448C206.674 122.657 207.087 122.762 207.562 122.762C207.928 122.762 208.241 122.712 208.503 122.613C208.769 122.509 208.986 122.381 209.153 122.229C209.325 122.078 209.443 121.929 209.506 121.782L209.537 121.72H211.183L211.167 121.79C211.094 122.072 210.966 122.354 210.783 122.637C210.6 122.913 210.357 123.167 210.054 123.397C209.756 123.626 209.396 123.812 208.973 123.953C208.555 124.094 208.072 124.165 207.523 124.165ZM212.963 124V112.152H214.663V124H212.963ZM218.097 124.125C217.773 124.125 217.499 124.013 217.274 123.788C217.055 123.564 216.945 123.295 216.945 122.981C216.945 122.657 217.055 122.386 217.274 122.166C217.499 121.947 217.773 121.837 218.097 121.837C218.426 121.837 218.7 121.947 218.92 122.166C219.139 122.386 219.249 122.657 219.249 122.981C219.249 123.295 219.139 123.564 218.92 123.788C218.7 124.013 218.426 124.125 218.097 124.125ZM218.097 118.201C217.773 118.201 217.499 118.089 217.274 117.864C217.055 117.64 216.945 117.371 216.945 117.057C216.945 116.733 217.055 116.462 217.274 116.242C217.499 116.023 217.773 115.913 218.097 115.913C218.426 115.913 218.7 116.023 218.92 116.242C219.139 116.462 219.249 116.733 219.249 117.057C219.249 117.371 219.139 117.64 218.92 117.864C218.7 118.089 218.426 118.201 218.097 118.201ZM230.379 124.274C229.569 124.274 228.843 124.138 228.201 123.867C227.558 123.59 227.009 123.193 226.555 122.676C226.1 122.159 225.75 121.537 225.505 120.811C225.265 120.079 225.144 119.259 225.144 118.35V118.335C225.144 117.133 225.359 116.091 225.787 115.208C226.215 114.32 226.821 113.633 227.605 113.147C228.389 112.661 229.305 112.418 230.355 112.418C231.212 112.418 231.977 112.57 232.651 112.873C233.325 113.176 233.879 113.602 234.313 114.15C234.746 114.694 235.031 115.331 235.167 116.062L235.174 116.141H233.411L233.388 116.062C233.189 115.394 232.826 114.879 232.299 114.519C231.776 114.158 231.129 113.978 230.355 113.978C229.661 113.978 229.057 114.155 228.545 114.511C228.033 114.866 227.636 115.37 227.354 116.023C227.077 116.671 226.939 117.439 226.939 118.327V118.342C226.939 119.016 227.017 119.622 227.174 120.16C227.336 120.698 227.568 121.158 227.871 121.54C228.174 121.916 228.537 122.206 228.961 122.409C229.384 122.613 229.862 122.715 230.395 122.715C231.011 122.715 231.552 122.595 232.017 122.354C232.487 122.109 232.852 121.769 233.114 121.336C233.375 120.902 233.508 120.395 233.513 119.816L233.521 119.565H230.614V118.147H235.261V119.549C235.261 120.265 235.146 120.913 234.916 121.492C234.686 122.072 234.357 122.571 233.929 122.989C233.5 123.402 232.986 123.721 232.385 123.945C231.784 124.165 231.115 124.274 230.379 124.274ZM238.146 120.137V118.664H241.233C241.996 118.664 242.586 118.468 243.004 118.076C243.427 117.679 243.639 117.13 243.639 116.43V116.415C243.639 115.704 243.427 115.153 243.004 114.761C242.586 114.37 241.996 114.174 241.233 114.174H238.146V112.693H241.672C242.414 112.693 243.064 112.849 243.623 113.163C244.187 113.471 244.629 113.905 244.947 114.464C245.266 115.017 245.425 115.663 245.425 116.399V116.415C245.425 117.151 245.266 117.802 244.947 118.366C244.629 118.925 244.187 119.361 243.623 119.675C243.064 119.983 242.414 120.137 241.672 120.137H238.146ZM237.268 124V112.693H239.023V124H237.268ZM250.152 124V114.213H246.595V112.693H255.465V114.213H251.907V124H250.152ZM264.895 124.274C264.158 124.274 263.505 124.133 262.936 123.851C262.366 123.569 261.912 123.185 261.572 122.699C261.233 122.208 261.034 121.66 260.977 121.054L260.969 120.952H262.622L262.63 121.015C262.682 121.344 262.808 121.644 263.006 121.916C263.21 122.187 263.476 122.401 263.805 122.558C264.134 122.715 264.503 122.793 264.91 122.793C265.375 122.793 265.785 122.691 266.14 122.488C266.496 122.279 266.773 121.994 266.971 121.634C267.175 121.273 267.277 120.858 267.277 120.388V120.372C267.277 119.907 267.175 119.494 266.971 119.134C266.767 118.773 266.49 118.494 266.14 118.295C265.79 118.092 265.386 117.99 264.926 117.99C264.586 117.99 264.27 118.042 263.978 118.147C263.69 118.246 263.434 118.397 263.21 118.601C263.111 118.695 263.017 118.797 262.928 118.907C262.839 119.011 262.761 119.129 262.693 119.259H261.173L261.737 112.693H268.319V114.182H263.124L262.779 117.786H262.904C263.066 117.53 263.267 117.313 263.508 117.136C263.753 116.958 264.03 116.822 264.338 116.728C264.646 116.634 264.973 116.587 265.318 116.587C266.028 116.587 266.655 116.749 267.198 117.073C267.747 117.397 268.178 117.841 268.491 118.405C268.805 118.969 268.961 119.614 268.961 120.341V120.356C268.961 121.124 268.786 121.803 268.436 122.394C268.092 122.984 267.614 123.446 267.002 123.781C266.396 124.11 265.694 124.274 264.895 124.274Z" fill="black"/>
<defs>
<clipPath id="clip0_16_32">
<rect x="376" y="30" width="40" height="40" rx="20" fill="white"/>
</clipPath>
</defs>
</svg>
